<svg width="25" height="25" viewBox="0 0 25 25" fill="none" xmlns="http://www.w3.org/2000/svg">
<path fill-rule="evenodd" clip-rule="evenodd" d="M1.26953 6.86035V4.05273C1.26953 2.51807 2.51809 1.26953 4.05273 1.26953H6.86035C7.21091 1.26953 7.49512 0.985327 7.49512 0.634766C7.49512 0.284204 7.21091 0 6.86035 0H4.05273C1.81807 0 0 1.81804 0 4.05273V6.86035C0 7.21091 0.284204 7.49512 0.634766 7.49512C0.985327 7.49512 1.26953 7.21091 1.26953 6.86035ZM6.86035 23.7305C7.21091 23.7305 7.49512 24.0147 7.49512 24.3652C7.49512 24.7158 7.21091 25 6.86035 25H4.05273C1.81807 25 0 23.1819 0 20.9473V18.1396C0 17.7891 0.284204 17.5049 0.634766 17.5049C0.985327 17.5049 1.26953 17.7891 1.26953 18.1396V20.9473C1.26953 22.4819 2.51809 23.7305 4.05273 23.7305H6.86035ZM25 18.1396V20.9473C25 23.1819 23.1819 25 20.9473 25H18.1396C17.7891 25 17.5049 24.7158 17.5049 24.3652C17.5049 24.0147 17.7891 23.7305 18.1396 23.7305H20.9473C22.4819 23.7305 23.7305 22.4819 23.7305 20.9473V18.1396C23.7305 17.7891 24.0147 17.5049 24.3652 17.5049C24.7158 17.5049 25 17.7891 25 18.1396ZM25 4.05273V6.86035C25 7.21091 24.7158 7.49512 24.3652 7.49512C24.0147 7.49512 23.7305 7.21091 23.7305 6.86035V4.05273C23.7305 2.51807 22.4819 1.26953 20.9473 1.26953H18.1396C17.7891 1.26953 17.5049 0.985327 17.5049 0.634766C17.5049 0.284204 17.7891 0 18.1396 0H20.9473C23.1819 0 25 1.81804 25 4.05273ZM16.8806 18.4774C17.148 18.2304 17.1645 17.8134 16.9175 17.5459C16.6705 17.2785 16.2535 17.262 15.986 17.509C15.0344 18.388 13.7964 18.8721 12.5 18.8721C11.2036 18.8721 9.96554 18.388 9.01395 17.509C8.74647 17.262 8.3295 17.2785 8.08246 17.5459C7.83543 17.8134 7.85196 18.2304 8.11939 18.4774C9.31532 19.5821 10.871 20.1904 12.5 20.1904C14.129 20.1904 15.6847 19.5821 16.8806 18.4774ZM13.8184 9.42383V14.1113C13.8184 15.0402 13.0627 15.7959 12.1338 15.7959H11.5967C11.2326 15.7959 10.9375 15.5008 10.9375 15.1367C10.9375 14.7727 11.2326 14.4775 11.5967 14.4775H12.1338C12.3357 14.4775 12.5 14.3133 12.5 14.1113V9.42383C12.5 9.05977 12.7951 8.76465 13.1592 8.76465C13.5232 8.76465 13.8184 9.05977 13.8184 9.42383ZM18.3594 11.2671V9.38721C18.3594 9.04338 18.0806 8.76465 17.7368 8.76465C17.393 8.76465 17.1143 9.04338 17.1143 9.38721V11.2671C17.1143 11.6109 17.393 11.8896 17.7368 11.8896C18.0806 11.8896 18.3594 11.6109 18.3594 11.2671ZM6.78711 11.2671C6.78711 11.6109 7.06584 11.8896 7.40967 11.8896C7.75349 11.8896 8.03223 11.6109 8.03223 11.2671V9.38721C8.03223 9.04338 7.75349 8.76465 7.40967 8.76465C7.06584 8.76465 6.78711 9.04338 6.78711 9.38721V11.2671Z" fill="#1F96F0"/>
</svg>
